# xmcd
#
# Track frame offsets:
#  150
#  16870
#  41943
#  62391
#  83645
#  99997
#  123637
#  140426
#  160068
#  176819
#  191696
#  210176
#  229243
#  249425
#  269777
#  290251
#  310525
#  327247
#
# Disc length: 4552 seconds
#
# Revision: 0
# Processed by: cddbd v1.5.1PL2 Copyright (c) Steve Scherf et al.
# Submitted via: Collectorz.com_Music_Collector 6.9
#
DISCID=f611c612
DTITLE=Various Artists-Blues - Blues Beat 0.2: Flaming the Blues
DYEAR=2005
DGENRE=Blues
TTITLE0=Durango - Coalminer's Blues
TTITLE1=Mathis And the Mathematiks - Voodoo Bitch
TTITLE2=Big Mojo - Down Side Blues (Alex Remix)
TTITLE3=T&Masson - Boogie Moogie
TTITLE4=Nublues - Swampthang
TTITLE5=Mfus - All I Want
TTITLE6=Mouloud - The Man with the Harmonica
TTITLE7=Juniior Kimbrough/Go Gittas Camp/Shrive Alive - Stay All Night
TTITLE8=Rick Holmstrom - Shake It, Part 2 (DJ Logic Remix)
TTITLE9=Captain Beefheart - Hard Workin' Man
TTITLE10=Otis Taylor - Hands On Your Stomach
TTITLE11=R.L. Burnside - Rollin' Tumblin (remix)
TTITLE12=Lalann - Glory Be
TTITLE13=Johnny Jenkins - Blind Bats and Swamps Rats
TTITLE14=Tangle Eye - Heaven
TTITLE15=Bar Man - The Cabinet Room
TTITLE16=Jumbo Layer - It's Groovy Now
TTITLE17=Chris Thomas King - Tha Real
EXTD=
EXTT0=
EXTT1=
EXTT2=
EXTT3=
EXTT4=
EXTT5=
EXTT6=
EXTT7=
EXTT8=
EXTT9=
EXTT10=
EXTT11=
EXTT12=
EXTT13=
EXTT14=
EXTT15=
EXTT16=
EXTT17=
PLAYORDER=
